# xmcd
#
# Track frame offsets:
#	150
#	11313
#	25490
#	44535
#	62319
#	75808
#	92049
#	107007
#	120905
#	138155
#	155034
#
# Disc length: 2237 seconds
#
# Revision: 0
# Processed by: cddbd v1.5.1PL2 Copyright (c) Steve Scherf et al.
# Submitted via: audiograbber 1.83.01
#
DISCID=7608bb0b
DTITLE=Mr. Dyers Doughters - My Lucky Stars Eand Stripes
DYEAR=1900
DGENRE=Country
TTITLE0=Boogie Woogie Bugle Boy
TTITLE1=Friction
TTITLE2=My Lucky Stars Eand Stripes
TTITLE3=Desire
TTITLE4=Daddy Tried
TTITLE5=Carolina Nights
TTITLE6=Hindsight Is 20/20
TTITLE7=Fearless
TTITLE8=You Can Always Reach Me
TTITLE9=God Is Control
TTITLE10=Go Rest High That Mountain
EXTD=
EXTT0=
EXTT1=
EXTT2=
EXTT3=
EXTT4=
EXTT5=
EXTT6=
EXTT7=
EXTT8=
EXTT9=
EXTT10=
PLAYORDER=
